<svg xmlns="http://www.w3.org/2000/svg" width="308.3" height="355.26" viewBox="0 0 308.3 355.26">
  <path d="M181.73,357.63c-43.57,0-84.6-15.94-111-43.45l-.36-.39C43.92,284.05,27.75,236.07,26,182.16,24.32,130.24,36.5,83.28,58.59,56.55l.46-.53C100.66,10.54,166.72-8.21,227.36,8.26c53.93,14.65,92.77,54.46,103.91,106.51l2.88,13.46L307.23,134l-2.88-13.46c-9.07-42.39-39.77-73.63-84.21-85.7C169.47,21.07,114.35,36.58,79.6,74.34c-36.69,44.89-37.12,166.35,11.16,221,22.67,23.47,59.23,36.39,97.9,34.64,37.55-1.72,70.31-16.59,90-40.84,10.82-18.13,13.27-41.24,6.39-60.54-5.11-14.35-14.72-24.88-27.18-29.88-7.18,35.78-30.51,67.51-69.54,71.63-22.42,4.06-45.32-3.12-59.92-18.82a53,53,0,0,1-12.58-50.7l.63-1.82c16.85-39.8,58.81-53.25,115.17-38.45-3.75-23.7-17.59-47.48-47.21-48.73h-.35c-15.08,0-27.62,5-38.32,15.25l-9.94,9.53-19-19.87,9.93-9.53c16-15.39,35.57-23,58.17-22.91h.41c49.66,1.92,73.32,44.26,74.9,85.7,1.76.7,3.52,1.42,5.3,2.16,21.19,7.53,37.34,24.27,45.51,47.18,9.85,27.62,6.38,59.36-9.28,84.9l-1,1.4c-24.62,30.84-65,49.73-110.84,51.83C187.18,357.56,184.45,357.63,181.73,357.63ZM142.24,208.79a25.3,25.3,0,0,0,6.37,24c8.34,9,21.83,13,35.23,10.41l1.24-.18c26.81-2.62,42.43-26.83,46.57-53.7C201.64,180.38,157.6,174.44,142.24,208.79Z" transform="translate(-25.85 -2.37)"/>
</svg>
